<?xml version="1.0" encoding="utf-8"?>
<!-- Generator: Adobe Illustrator 19.2.1, SVG Export Plug-In . SVG Version: 6.00 Build 0)  -->
<svg version="1.1" id="Ebene_1" xmlns="http://www.w3.org/2000/svg" xmlns:xlink="http://www.w3.org/1999/xlink" x="0px" y="0px"
	 viewBox="0 0 960 960" style="enable-background:new 0 0 960 960;" xml:space="preserve">
<style type="text/css">
	.st0{fill:#FFD3BD;}
	.st1{fill:#302D28;}
	.st2{fill:#FFFFFF;}
	.st3{clip-path:url(#SVGID_2_);}
	.st4{fill:#3C3636;}
	.st5{clip-path:url(#SVGID_4_);}
	.st6{fill:#3F322C;}
	.st7{fill:#262B36;}
	.st8{clip-path:url(#SVGID_6_);}
	.st9{fill:#E4406A;}
</style>
<g>
	<title>memojis</title>
	<path class="st0" d="M713.8,500.7c0,0,11.6-32.6,25.5-29.1c13.9,3.5,25.8,7,25.8,24.4s0,63.8-18.5,90.3s-16.2,46.2-28.9,40.5
		s-15-40.5-15-40.5S693,506.5,713.8,500.7z"/>
	<path class="st0" d="M240.7,534.3c0,0-18.5-26.6-30.1-22c-11.6,4.6-37.1,6.8-7,67.6s43.8,83.7,60.1,89.6c16.3,5.9,7-65.8,7-65.8
		L240.7,534.3z"/>
	<path class="st0" d="M254.6,558.5c0,0,12.7,230.3,77.5,282.4c77.5,62.3,145.9,68.3,169,68.3c23.1,0,135.4-15.1,181.7-110
		c53.2-108.9,27.8-261.6,27.8-261.6l-13.9-104.2c0,0-1.2-157.4-47.5-171.3c-46.3-13.9-287.1-37-348.4,6.9S254.6,558.5,254.6,558.5z"
		/>
	<path class="st1" d="M256.1,595.4c0,0-36.2-98.3-39.7-100.6c-3.5-2.3-55.6-70.6-55.6-104.2s-3.5-55.6,5.7-88s25.5-62.5,22-68.3
		c-3.5-5.8,25.5-11.6,27.8-37c2.3-25.5,41.8-61.4,47.5-70.6c5.7-9.3,23.2-4.6,39.4-19.7c16.2-15.1,93.8-42.8,105.3-39.4
		c11.6,3.5,74-13.9,89.2-6.9s75.2,15.1,82.2,23.2s30.1,32.4,42.8,50.9s55.6,26.6,67.1,45.1s40.5,100.6,46.3,106.5
		c5.8,5.9,38.2,18.5,38.2,18.5s10.4,83.3,0,96.1c-10.4,12.7-37.1,54.9-41.8,63c-4.6,8.1-28.2,85.9-28.2,85.9s-2.5-72.5-7.6-116.5
		c0,0-28.5-12.7-41.4-90.3s-32.7-83.3-46.5-76.4S328.7,297,310.1,303.8c-18.6,6.9-31.2,19.7-33.5,55.6c-2.3,35.8,5.7,76.4,5.7,76.4
		s-28.7,9.3-29,30.1C253,486.8,256.1,595.4,256.1,595.4z"/>
	<path class="st2" d="M421.7,541.9L421.7,541.9c4.7,23.9-94.3,27.6-93,8.1C329.9,530.4,417,518,421.7,541.9"/>
	<g>
		<defs>
			<path id="SVGID_1_" d="M421.7,541.9L421.7,541.9c4.7,23.9-94.3,27.6-93,8.1C329.9,530.4,417,518,421.7,541.9"/>
		</defs>
		<clipPath id="SVGID_2_">
			<use xlink:href="#SVGID_1_"  style="overflow:visible;"/>
		</clipPath>
		<g class="st3">
			<path class="st4" d="M376.9,524L376.9,524c12-1.5,23,7.1,24.4,19.1c1.5,12-7.1,23-19.1,24.4c-12,1.5-23-7.1-24.4-19.1
				c0,0,0,0,0,0C356.3,536.4,364.8,525.5,376.9,524"/>
		</g>
	</g>
	<path class="st2" d="M635,529.1L635,529.1c-3.8,24.3-99,17.9-91.1-1.5C551.7,508.3,638.8,504.9,635,529.1"/>
	<g>
		<defs>
			<path id="SVGID_3_" d="M635,529.1L635,529.1c-3.8,24.3-99,17.9-91.1-1.5C551.7,508.3,638.8,504.9,635,529.1"/>
		</defs>
		<clipPath id="SVGID_4_">
			<use xlink:href="#SVGID_3_"  style="overflow:visible;"/>
		</clipPath>
		<g class="st5">
			<path class="st4" d="M589.8,507.3L589.8,507.3c12.1-0.6,22.4,8.7,23,20.7c0.6,12.1-8.7,22.4-20.7,23c-12.1,0.6-22.4-8.7-23-20.7
				c0,0,0,0,0,0C568.5,518.2,577.8,508,589.8,507.3"/>
		</g>
	</g>
	<path class="st6" d="M333.5,480.4c11.9-2.5,23.9-4.2,36.1-5c0,0,3.2-0.2,8.2-0.5c2.5-0.1,5.5-0.2,8.8-0.3c3.3-0.1,6.9-0.1,10.6,0
		c14.8,0,31.7,1.9,40,7.3c1.6,0.9,3,2.1,4,3.6c0.3,0.5,0.5,1,0.5,1.5c0,0.5-0.1,0.9-0.3,1.3c-0.9,1.7-3.6,3.2-6.9,4.9
		c-5.1,2.6-10.3,4.8-15.6,6.6c0,0-48.1-1-55.2-0.4c-7.1,0.6-30.5,6.3-39,7.4c-6.4,0.9-12.8,0.7-19.1-0.5c-1.6-1.4-3-3.2-3.9-5.1
		c-0.2-0.4-0.3-0.7-0.4-1.1c0-0.2-0.1-0.4-0.1-0.6c0-0.2,0-0.4,0-0.6c0-0.9,0.3-1.8,0.7-2.6c1.8-2.7,4.3-4.7,7.3-6
		C325.3,481.8,333.6,480.6,333.5,480.4L333.5,480.4L333.5,480.4z"/>
	<path class="st6" d="M618.6,455.9c-12.1-0.7-24.3-0.7-36.4,0.2c0,0-3.2,0.2-8.2,0.7c-2.5,0.2-5.5,0.6-8.7,0.9
		c-3.2,0.4-6.8,0.9-10.4,1.4c-14.7,2.1-31.1,6.4-38.6,13c-1.4,1.1-2.6,2.5-3.5,4.1c-0.2,0.5-0.3,1-0.3,1.6c0,0.5,0.2,0.9,0.5,1.3
		c1.1,1.6,4.1,2.7,7.6,3.8c5.4,1.8,10.9,3.3,16.4,4.3c0,0,47.5-7.9,54.6-8.3c7.1-0.4,31.1,1.9,39.7,1.7c6.4,0,12.8-1.1,18.9-3.2
		c1.4-1.7,2.5-3.6,3.2-5.7c0.1-0.4,0.2-0.8,0.2-1.2c0-0.2,0-0.4,0-0.6c0-0.2,0-0.4,0-0.6c-0.2-0.9-0.5-1.8-1.1-2.5
		c-2.2-2.3-5-3.9-8.1-4.7C627,456,618.6,456.1,618.6,455.9L618.6,455.9L618.6,455.9z"/>
	<path class="st7" d="M376.3,714.7c0,0,63.8-20.4,117.4-24.7c53.6-4.3,127.3,3.4,127.3,3.4s19.1,137.8-108.6,147.2
		S376.3,714.7,376.3,714.7z"/>
	<g>
		<defs>
			<path id="SVGID_5_" d="M376.3,714.7c0,0,63.8-20.4,117.4-24.7c53.6-4.3,127.3,3.4,127.3,3.4s19.1,137.8-108.6,147.2
				S376.3,714.7,376.3,714.7z"/>
		</defs>
		<clipPath id="SVGID_6_">
			<use xlink:href="#SVGID_5_"  style="overflow:visible;"/>
		</clipPath>
		<g class="st8">
			<ellipse class="st9" cx="519.2" cy="868.3" rx="129.3" ry="103.4"/>
		</g>
	</g>
</g>
</svg>
